# xmcd
# Copyright (C) 1995-1998 Ti Kan
#
# Track frame offsets:
#       150
#       14599
#       38753
#
# Disc length: 703 seconds
#
# Revision: 0
# Processed by: cddbd v1.5.2PL0 Copyright (c) Steve Scherf et al.
# Submitted via: CD-Transfer v1.0
#
DISCID=1c02bd03
DTITLE=Cass Mccombs - 
DYEAR=1900
DGENRE=
TTITLE0=Dreams Came True Girl Feat. Karen Black (Radio Version)
TTITLE1=Dreams Came True Girl Feat. Karen Black (Album Version)
TTITLE2=Minimum Wage
EXTD=
EXTT0=
EXTT1=
EXTT2=
PLAYORDER=
